<?xml version="1.0" encoding="UTF-8"?>
<svg
    width="200"
    height="200"
    viewBox="0 0 24 24"
    fill="none"
    xmlns="http://www.w3.org/2000/svg"
>
    <path
        d="M6.5 17C4.01472 17 2 14.9853 2 12.5C2 10.2237 3.71945 8.34024 5.97152 8.03424C6.21668 6.225 7.83183 5 9.5 5C10.9616 5 12.2274 5.85714 12.7392 7.08571C14.2292 7.15671 15.5 8.41667 15.5 10C15.5 10.2755 15.4516 10.5432 15.3648 10.7969C16.8728 11.3016 18 12.7105 18 14.5C18 16.433 16.433 18 14.5 18H6.5Z"
        fill="#4A90E2"
    />
    <path
        d="M22 14.5C22 16.9853 19.9853 19 17.5 19H6.5C4.01472 19 2 16.9853 2 14.5C2 12.0147 4.01472 10 6.5 10C6.73378 10 6.9665 10.0187 7.19671 10.0554C7.59021 8.4018 9.03807 7.14001 10.808 7.01487C11.1016 5.75357 12.2121 4.82353 13.5 4.82353C15.0176 4.82353 16.2521 6.05805 16.2521 7.57567C16.2521 8.14721 16.0427 8.6909 15.6676 9.08926C17.3788 9.44188 18.6364 10.9526 18.6364 12.7059C18.6364 12.8843 18.6233 13.0614 18.5974 13.2368C20.0127 13.7057 22 14.5001 22 14.5Z"
        fill="#B0C4DE"
    />
</svg>
